HIERARCHY
ROOT Hips
{
	OFFSET 53.301201 -10.775116 100.663002
	CHANNELS 6 Xposition Yposition Zposition Xrotation Yrotation Zrotation
	JOINT spine
	{
		OFFSET 0.000000 -0.507026 8.817047
		CHANNELS 3 Xrotation Yrotation Zrotation
		JOINT spine1
		{
			OFFSET 0.000000 -0.000002 10.776604
			CHANNELS 3 Xrotation Yrotation Zrotation
			JOINT spine2
			{
				OFFSET 0.000000 -0.000001 10.325897
				CHANNELS 3 Xrotation Yrotation Zrotation
				JOINT Neck
				{
					OFFSET 0.000000 -1.263955 26.511002
					CHANNELS 3 Xrotation Yrotation Zrotation
					JOINT Head
					{
						OFFSET 0.000000 -0.000001 8.009659
						CHANNELS 3 Xrotation Yrotation Zrotation
						End Site
						{
							OFFSET 0.000000 6.393857 19.387894
						}
					}
				}
				JOINT RightShoulder
				{
					OFFSET -4.347950 0.605420 11.151199
					CHANNELS 3 Xrotation Yrotation Zrotation
					JOINT RightArm
					{
						OFFSET 0.000000 -0.000003 14.625793
						CHANNELS 3 Xrotation Yrotation Zrotation
						JOINT RightArmRoll
						{
							OFFSET 0.000000 -0.000001 7.383408
							CHANNELS 3 Xrotation Yrotation Zrotation
							JOINT RightForeArm
							{
								OFFSET 0.000000 -0.000004 21.505203
								CHANNELS 3 Xrotation Yrotation Zrotation
								JOINT RightForeArmRoll
								{
									OFFSET 0.000000 -0.000001 8.285324
									CHANNELS 3 Xrotation Yrotation Zrotation
									JOINT RightHand
									{
										OFFSET 0.000000 -0.000003 16.626801
										CHANNELS 3 Xrotation Yrotation Zrotation
										End Site
										{
											OFFSET 0.000000 0.000000 0.100006
										}
									}
								}
							}
						}
					}
				}
				JOINT LeftShoulder
				{
					OFFSET 4.347950 0.605420 11.151199
					CHANNELS 3 Xrotation Yrotation Zrotation
					JOINT LeftArm
					{
						OFFSET 0.000000 -0.000003 14.625793
						CHANNELS 3 Xrotation Yrotation Zrotation
						JOINT LeftArmRoll
						{
							OFFSET 0.000000 -0.000001 7.383408
							CHANNELS 3 Xrotation Yrotation Zrotation
							JOINT LeftForeArm
							{
								OFFSET 0.000000 -0.000004 21.505203
								CHANNELS 3 Xrotation Yrotation Zrotation
								JOINT LeftForeArmRoll
								{
									OFFSET 0.000000 -0.000001 8.285324
									CHANNELS 3 Xrotation Yrotation Zrotation
									JOINT LeftHand
									{
										OFFSET 0.000000 -0.000003 16.626801
										CHANNELS 3 Xrotation Yrotation Zrotation
										End Site
										{
											OFFSET 0.000000 0.000000 0.100006
										}
									}
								}
							}
						}
					}
				}
			}
		}
	}
	JOINT RightUpLeg
	{
		OFFSET -7.815102 1.202170 -1.433090
		CHANNELS 3 Xrotation Yrotation Zrotation
		JOINT RightUpLegRoll
		{
			OFFSET 0.000000 -0.000003 19.495903
			CHANNELS 3 Xrotation Yrotation Zrotation
			JOINT RightLeg
			{
				OFFSET 0.000000 0.000004 -24.142700
				CHANNELS 3 Xrotation Yrotation Zrotation
				JOINT RightLegRoll
				{
					OFFSET 0.000000 -0.000004 24.221703
					CHANNELS 3 Xrotation Yrotation Zrotation
					JOINT RightFoot
					{
						OFFSET 0.000000 -0.000004 20.160500
						CHANNELS 3 Xrotation Yrotation Zrotation
						JOINT RightToeBase
						{
							OFFSET 0.000000 -0.000003 16.853195
							CHANNELS 3 Xrotation Yrotation Zrotation
							End Site
							{
								OFFSET 0.007145 0.940780 8.161865
							}
						}
					}
				}
			}
		}
	}
	JOINT LeftUpLeg
	{
		OFFSET 7.815102 1.202170 -1.433090
		CHANNELS 3 Xrotation Yrotation Zrotation
		JOINT LeftUpLegRoll
		{
			OFFSET 0.000000 -0.000003 19.496002
			CHANNELS 3 Xrotation Yrotation Zrotation
			JOINT LeftLeg
			{
				OFFSET 0.000000 -0.000004 24.142601
				CHANNELS 3 Xrotation Yrotation Zrotation
				JOINT LeftLegRoll
				{
					OFFSET 0.000000 -0.000005 24.445602
					CHANNELS 3 Xrotation Yrotation Zrotation
					JOINT LeftFoot
					{
						OFFSET 0.000000 -0.000003 19.936600
						CHANNELS 3 Xrotation Yrotation Zrotation
						JOINT LeftToeBase
						{
							OFFSET 0.000000 -0.000003 16.853195
							CHANNELS 3 Xrotation Yrotation Zrotation
							End Site
							{
								OFFSET -0.032013 0.940780 8.161865
							}
						}
					}
				}
			}
		}
	}
}
MOTION
Frames: 11
Frame Time: 0.041667
53.210796 -12.628916 100.571999 -3.683587 -0.125854 1.154747 -2.484857 -0.260345 -0.148414 -0.967587 -0.505470 -0.310266 0.677508 -0.509097 -0.301722 16.764843 0.859361 2.579410 -6.834585 14.240964 1.903540 -2.237427 -68.277890 -3.674479 -46.809100 -129.395844 -100.998629 0.000001 0.000023 -0.000002 92.808132 7.683408 -10.766303 0.000001 -0.000017 -2.999998 -5.000220 -7.998743 0.000170 -8.540713 58.511744 10.076416 -46.630569 135.683456 87.996209 -0.000003 0.000000 -0.000002 91.307840 -3.753247 8.607859 -0.000002 0.000004 3.002221 -5.000229 7.998716 -0.000174 2.281154 -176.424824 0.851380 -179.999991 0.000005 -1.183005 171.159035 -1.192662 -0.531499 -0.000005 0.000001 0.200135 71.392122 6.854792 2.050303 25.617217 -7.354524 0.236630 2.336162 175.548689 0.915746 -0.000005 -0.000004 -1.188560 -8.982468 2.236411 0.506932 -0.000001 0.000001 -0.180615 71.337979 -6.875565 -2.021861 25.745969 7.355590 -0.432285 
53.209797 -12.633214 100.573990 -3.696889 -0.125393 1.156378 -2.476118 -0.262302 -0.148015 -0.950117 -0.508750 -0.311763 0.694978 -0.512402 -0.303502 16.654940 0.967206 2.577570 -6.831983 14.142958 1.907287 -2.172399 -68.228023 -3.596765 -46.795327 -129.297899 -100.747298 -0.000001 0.000022 -0.000001 92.993504 7.760014 -10.918074 0.000002 -0.000017 -2.999998 -5.000223 -7.998741 0.000170 -8.710462 58.487907 10.275286 -46.641702 135.675533 88.291458 -0.000003 0.000001 -0.000001 91.422601 -3.808430 8.702296 -0.000000 0.000003 3.002218 -5.000226 7.998714 -0.000172 2.324810 -176.397954 0.899508 -179.999991 0.000005 -1.183005 171.231381 -1.254176 -0.531439 -0.000005 0.000001 0.195587 71.337890 6.856122 2.050258 25.620137 -7.354519 0.240556 2.361993 175.550765 0.918504 -0.000005 -0.000004 -1.188590 -8.957837 2.230863 0.505260 -0.000001 0.000000 -0.180887 71.323806 -6.875396 -2.021909 25.746675 7.355590 -0.433658 
53.214596 -12.633114 100.570999 -3.710168 -0.124904 1.158231 -2.467389 -0.264260 -0.147611 -0.932660 -0.512041 -0.313226 0.712433 -0.515718 -0.305255 16.549390 1.074208 2.575919 -6.836604 14.045443 1.911715 -2.114688 -68.171934 -3.526652 -46.777940 -129.202590 -100.489507 0.000001 0.000023 -0.000003 93.177208 7.834375 -11.068613 0.000001 -0.000012 -2.999999 -5.000221 -7.998739 0.000170 -8.882022 58.460190 10.476142 -46.652145 135.671504 88.571844 -0.000003 0.000003 -0.000001 91.529739 -3.860903 8.790562 -0.000001 0.000003 3.002219 -5.000227 7.998718 -0.000169 2.369353 -176.371098 0.948637 -179.999991 0.000005 -1.183005 171.305762 -1.316704 -0.531340 -0.000004 0.000001 0.190940 71.282204 6.857510 2.050213 25.623173 -7.354528 0.244625 2.388313 175.552855 0.921225 -0.000005 -0.000004 -1.188630 -8.932090 2.225301 0.503546 0.000000 0.000001 -0.181154 71.308903 -6.875261 -2.021906 25.747484 7.355587 -0.435073 
53.208694 -12.637512 100.572998 -3.723278 -0.124338 1.160329 -2.458806 -0.266188 -0.147210 -0.915516 -0.515295 -0.314607 0.729578 -0.518995 -0.306928 16.450280 1.178581 2.574530 -6.849297 13.950083 1.916843 -2.064497 -68.111241 -3.464498 -46.757788 -129.110369 -100.227453 -0.000001 0.000022 0.000001 93.357881 7.905703 -11.215101 0.000004 -0.000013 -2.999999 -5.000220 -7.998741 0.000168 -9.052021 58.429714 10.675032 -46.661045 135.668771 88.834403 -0.000002 -0.000001 -0.000003 91.630048 -3.910651 8.875658 -0.000002 0.000002 3.002217 -5.000228 7.998717 -0.000174 2.413959 -176.344242 0.997538 -179.999991 0.000005 -1.183004 171.380402 -1.379256 -0.531059 -0.000005 0.000001 0.186311 71.226435 6.858934 2.050180 25.626303 -7.354515 0.248741 2.414628 175.554932 0.923808 -0.000005 -0.000005 -1.188660 -8.905978 2.219829 0.501837 -0.000001 0.000001 -0.181414 71.293897 -6.875122 -2.021907 25.748186 7.355590 -0.436465 
53.200294 -12.649315 100.571007 -3.736040 -0.123644 1.162666 -2.450537 -0.268055 -0.146818 -0.898980 -0.518462 -0.315863 0.746114 -0.522183 -0.308466 16.359787 1.278568 2.573398 -6.870915 13.858950 1.922727 -2.021975 -68.047228 -3.410603 -46.738353 -129.019637 -99.966785 -0.000002 0.000022 -0.000003 93.534257 7.973324 -11.357387 0.000001 -0.000013 -2.999999 -5.000219 -7.998736 0.000168 -9.217065 58.397660 10.868048 -46.670071 135.662939 89.079512 -0.000002 -0.000000 -0.000003 91.724161 -3.958005 8.954579 -0.000001 0.000000 3.002218 -5.000228 7.998720 -0.000172 2.457776 -176.319380 1.044897 -179.999991 0.000005 -1.183005 171.453485 -1.439839 -0.531367 -0.000006 0.000001 0.181815 71.172046 6.860288 2.050255 25.629235 -7.354526 0.252795 2.440470 175.557022 0.926141 -0.000005 -0.000005 -1.188690 -8.880247 2.214530 0.500176 -0.000001 0.000000 -0.181668 71.279205 -6.874971 -2.021888 25.748903 7.355584 -0.437792 
53.202797 -12.651617 100.570000 -3.748319 -0.122771 1.165257 -2.442719 -0.269828 -0.146440 -0.883348 -0.521491 -0.316949 0.761746 -0.525231 -0.309816 16.280000 1.372377 2.572534 -6.902315 13.774015 1.929419 -1.987277 -67.981529 -3.365282 -46.719754 -128.931569 -99.708871 0.000001 0.000026 -0.000002 93.705162 8.036599 -11.494360 -0.000001 -0.000014 -3.000001 -5.000218 -7.998741 0.000169 -9.373800 58.365087 11.051279 -46.678008 135.652256 89.303542 -0.000003 -0.000001 0.000000 91.812878 -4.003016 9.030358 -0.000001 0.000000 3.002220 -5.000224 7.998716 -0.000170 2.499980 -176.295529 1.089524 -179.999991 0.000005 -1.183005 171.523235 -1.497471 -0.530157 -0.000005 0.000001 0.177570 71.120526 6.861570 2.050241 25.632168 -7.354519 0.256733 2.465350 175.558101 0.928056 -0.000005 -0.000004 -1.188720 -8.855618 2.209500 0.498607 0.000001 0.000000 -0.181915 71.265265 -6.874836 -2.021925 25.749508 7.355583 -0.438988 
53.197197 -12.653315 100.571991 -3.759937 -0.121671 1.168114 -2.435497 -0.271478 -0.146082 -0.868919 -0.524333 -0.317816 0.776176 -0.528090 -0.310926 16.212998 1.458232 2.571919 -6.944350 13.697131 1.936957 -1.960525 -67.915515 -3.328820 -46.703304 -128.846874 -99.456235 0.000001 0.000026 -0.000001 93.869243 8.095067 -11.622901 0.000003 -0.000016 -2.999997 -5.000221 -7.998743 0.000166 -9.518886 58.333060 11.220845 -46.685064 135.633678 89.504595 -0.000002 0.000004 0.000000 91.896910 -4.045836 9.102001 -0.000001 0.000000 3.002220 -5.000230 7.998712 -0.000170 2.539703 -176.274642 1.130096 -179.999991 0.000005 -1.183005 171.587848 -1.549154 -0.530075 -0.000006 0.000001 0.173693 71.073152 6.862753 2.050258 25.634791 -7.354522 0.260426 2.488776 175.559180 0.929495 -0.000005 -0.000005 -1.188750 -8.832832 2.204825 0.497173 0.000000 0.000000 -0.182153 71.252731 -6.874713 -2.021880 25.750006 7.355586 -0.439998 
53.194397 -12.658716 100.570999 -3.770749 -0.120292 1.171242 -2.429040 -0.272970 -0.145751 -0.855987 -0.526939 -0.318422 0.789106 -0.530709 -0.311742 16.160953 1.534365 2.571521 -6.997875 13.630259 1.945409 -1.941843 -67.850703 -3.301488 -46.692618 -128.763969 -99.214556 -0.000001 0.000022 -0.000003 94.025511 8.148061 -11.743830 0.000001 -0.000015 -2.999998 -5.000218 -7.998743 0.000170 -9.649069 58.302802 11.372952 -46.693055 135.602819 89.683150 -0.000001 0.000004 -0.000001 91.977055 -4.086708 9.169552 -0.000002 0.000004 3.002216 -5.000229 7.998710 -0.000172 2.576131 -176.256774 1.165372 -179.999991 0.000005 -1.183005 171.645509 -1.594905 -0.529201 -0.000005 0.000001 0.170299 71.031406 6.863821 2.050209 25.637211 -7.354520 0.263815 2.510290 175.559248 0.930299 -0.000005 -0.000004 -1.188780 -8.812621 2.200587 0.495915 -0.000001 0.000000 -0.182383 71.242097 -6.874530 -2.021906 25.750322 7.355586 -0.440757 
53.203896 -12.641516 100.569000 -3.780596 -0.118583 1.174654 -2.423456 -0.274277 -0.145454 -0.844850 -0.529259 -0.318721 0.800245 -0.533037 -0.312211 16.126049 1.598993 2.571297 -7.063744 13.575261 1.954840 -1.931338 -67.788501 -3.283547 -46.688926 -128.683482 -98.986537 -0.000001 0.000021 -0.000003 94.172661 8.195010 -11.855054 0.000006 -0.000014 -2.999999 -5.000224 -7.998740 0.000166 -9.761122 58.275625 11.503869 -46.700797 135.557972 89.835470 -0.000004 0.000003 0.000003 92.053902 -4.125697 9.232991 0.000000 0.000000 3.002220 -5.000226 7.998711 -0.000173 2.608401 -176.243879 1.194023 -179.999991 0.000006 -1.183005 171.694440 -1.632709 -0.529324 -0.000006 0.000001 0.167507 70.996620 6.864662 2.050294 25.639335 -7.354516 0.266796 2.529403 175.558319 0.930356 -0.000005 -0.000005 -1.188810 -8.795746 2.196893 0.494878 -0.000000 0.000000 -0.182603 71.233730 -6.874421 -2.021903 25.750414 7.355582 -0.441220 
53.202396 -12.649312 100.571007 -3.789310 -0.116495 1.178354 -2.418939 -0.275364 -0.145196 -0.835803 -0.531243 -0.318667 0.809290 -0.535023 -0.312281 16.110266 1.650341 2.571221 -7.142842 13.534080 1.965348 -1.929129 -67.730417 -3.275270 -46.694445 -128.605345 -98.775757 0.000000 0.000020 -0.000002 94.309264 8.235267 -11.955367 0.000003 -0.000010 -2.999999 -5.000222 -7.998743 0.000169 -9.851760 58.252511 11.609753 -46.709372 135.495435 89.960907 -0.000004 0.000001 0.000001 92.128296 -4.162941 9.293360 0.000000 -0.000001 3.002221 -5.000226 7.998712 -0.000172 2.635697 -176.234973 1.214854 -179.999991 0.000004 -1.184002 171.732853 -1.660568 -0.529248 -0.000005 0.000001 0.165432 70.970392 6.865295 2.050219 25.641053 -7.354513 0.269284 2.545638 175.556366 0.929549 -0.000005 -0.000004 -1.188840 -8.782908 2.193826 0.494104 -0.000001 0.000000 -0.182813 71.228327 -6.874249 -2.021908 25.750211 7.355584 -0.441319 
53.188396 -12.675014 100.572998 -3.797610 -0.114158 1.181982 -2.415127 -0.276303 -0.145006 -0.828177 -0.533014 -0.318302 0.816917 -0.536791 -0.311999 16.113615 1.691540 2.571070 -7.239604 13.504300 1.977473 -1.937782 -67.670482 -3.278941 -46.702037 -128.534011 -98.574383 -0.000000 0.000021 0.000001 94.434844 8.268875 -12.044732 0.000008 -0.000013 -2.999995 -5.000222 -7.998744 0.000166 -9.926562 58.231065 11.697022 -46.716370 135.420276 90.057000 -0.000002 0.000000 -0.000002 92.197520 -4.198461 9.349557 -0.000001 -0.000002 3.002218 -5.000227 7.998712 -0.000170 2.659651 -176.231052 1.229212 -179.999991 0.000005 -1.184002 171.762933 -1.679500 -0.528105 -0.000006 0.000001 0.163960 70.951049 6.865737 2.050185 25.642364 -7.354514 0.271330 2.560603 175.553429 0.927877 -0.000005 -0.000005 -1.188860 -8.772725 2.191307 0.493519 -0.000000 0.000000 -0.183012 71.225076 -6.874120 -2.021887 25.749813 7.355591 -0.441139 
